<svg width="32" height="32" viewBox="0 0 32 32" fill="none" xmlns="http://www.w3.org/2000/svg">
<g clip-path="url(#clip0)">
<path d="M5.67139 11.2959C5.32642 11.2959 5.04639 11.5757 5.04639 11.9207C5.04639 12.2656 5.32642 12.5457 5.67139 12.5457C6.01636 12.5457 6.29639 12.2656 6.29639 11.9207C6.29639 11.5757 6.01636 11.2959 5.67139 11.2959Z" fill="black"/>
<path d="M23.183 18.764C23.066 18.6469 22.9069 18.5809 22.7411 18.5809C22.7347 18.5822 22.4945 18.5687 22.2992 18.764L21.8575 19.2057L20.4215 17.7699C23.5905 13.3278 23.1085 7.20007 19.2059 3.29773C14.8099 -1.09827 7.69421 -1.099 3.29773 3.29773C-1.09827 7.69348 -1.099 14.8094 3.29773 19.2059C7.19055 23.099 13.3158 23.5985 17.7697 20.4215L19.2057 21.8575L18.764 22.2992C18.5201 22.5431 18.5199 22.9391 18.764 23.1832L26.6654 31.0839C27.8864 32.3055 29.8627 32.3063 31.0839 31.0841C32.3055 29.8634 32.306 27.8868 31.0839 26.6656L23.183 18.764ZM20.0895 20.9738L18.7513 19.6356C18.9069 19.4962 19.059 19.3531 19.2059 19.2059C19.3531 19.059 19.4962 18.9069 19.6356 18.7516L20.9738 20.0897L20.0895 20.9738ZM4.18152 18.3221C0.273804 14.4147 0.273315 8.08948 4.18152 4.18152C8.08899 0.273804 14.4142 0.273315 18.3221 4.18152C22.2211 8.0802 22.2408 14.4039 18.3221 18.3221C14.3593 22.2855 8.03577 22.1766 4.18152 18.3221V18.3221ZM22.7411 20.0897L24.5084 21.8573L21.8573 24.5084L20.0897 22.7411L22.7411 20.0897ZM30.2001 30.2003C29.4677 30.9335 28.2823 30.9337 27.5494 30.2003L22.7411 25.3922L25.3922 22.7411L30.2003 27.5497C30.9332 28.2819 30.934 29.4672 30.2001 30.2003V30.2003Z" fill="black"/>
<path d="M17.4382 5.06519C14.0205 1.64746 8.48364 1.64551 5.06445 5.0647C1.65381 8.47607 1.65381 14.0269 5.06445 17.4385C8.48413 20.8579 14.0178 20.8582 17.4377 17.4385C20.8491 14.0269 20.8494 8.47632 17.4382 5.06519ZM16.554 16.5544C13.623 19.4854 8.87988 19.4861 5.94824 16.5547C3.0249 13.6304 3.0249 8.87256 5.94824 5.94824C8.87769 3.01904 13.624 3.01831 16.5544 5.94897C19.4783 8.8728 19.478 13.6304 16.554 16.5544Z" fill="black"/>
<path d="M11.2515 5.00269C9.58106 5.00269 8.01173 5.65259 6.83253 6.83252C6.14894 7.51612 5.64576 8.32374 5.33717 9.2334C5.22633 9.56007 5.40113 9.91505 5.72804 10.0259C6.05543 10.137 6.40992 9.96119 6.52076 9.63502C6.7671 8.9087 7.16944 8.26319 7.71632 7.71607C8.65968 6.77246 9.91505 6.25269 11.2515 6.25269C11.5967 6.25269 11.8765 5.9729 11.8765 5.62769C11.8765 5.28247 11.5967 5.00269 11.2515 5.00269Z" fill="black"/>
</g>
<defs>
<clipPath id="clip0">
<rect width="32" height="32" fill="white"/>
</clipPath>
</defs>
</svg>
