<svg width="27" height="27" viewBox="0 0 27 27" fill="none" xmlns="http://www.w3.org/2000/svg">
<g clip-path="url(#clip0)">
<path d="M14.291 5.78238H12.709V11.6359H14.291V5.78238Z" fill="#E5F8FC"/>
<path d="M5.24528 20.7061C5.64369 16.4975 9.18707 13.2047 13.5 13.2047C17.8129 13.2047 21.3563 16.4975 21.7547 20.7062H27V22.2882H0V20.7062H5.24528V20.7061Z" fill="#E5F8FC"/>
<path d="M23.6426 23.8701H3.35746V25.4522H23.6426V23.8701Z" fill="#E5F8FC"/>
<path d="M26.403 17.4748L25.8445 15.994L22.4387 17.2785L22.9971 18.7592L26.403 17.4748Z" fill="#E5F8FC"/>
<path d="M19.4288 9.34683L17.9686 8.73617L16.564 12.0947L18.0243 12.7054L19.4288 9.34683Z" fill="#E5F8FC"/>
<path d="M10.4174 12.0938L9.01287 8.73529L7.55271 9.34594L8.95725 12.7045L10.4174 12.0938Z" fill="#E5F8FC"/>
<path d="M4.54517 17.2801L1.13932 15.9956L0.58086 17.4764L3.98671 18.7609L4.54517 17.2801Z" fill="#E5F8FC"/>
<path d="M25.1728 10.9438L24.0543 9.82534L19.9158 13.9638L21.0343 15.0823L25.1728 10.9438Z" fill="#E5F8FC"/>
<path d="M7.08966 13.9657L2.95123 9.82723L1.83274 10.9457L5.97117 15.0842L7.08966 13.9657Z" fill="#E5F8FC"/>
<path d="M2.5061 7.84165L0.0809002 5.4165L1.19956 4.29785L2.27444 5.37268V1.54781H3.85647V5.37268L4.94797 4.28119L6.06662 5.39984L3.62476 7.84165H2.5061Z" fill="#E5F8FC"/>
</g>
<defs>
<clipPath id="clip0">
<rect width="27" height="27" fill="white" transform="matrix(-1 0 0 1 27 0)"/>
</clipPath>
</defs>
</svg>
