<svg width="18" height="21" viewBox="0 0 18 21" fill="none" xmlns="http://www.w3.org/2000/svg">
<path d="M7.84158 15.6558H2.3682V13.692H7.84158C8.37944 13.6922 8.90699 13.8641 9.36708 14.1889C9.82717 14.5138 10.2022 14.9793 10.4517 15.535C10.7011 16.0906 10.8154 16.7153 10.7821 17.3413C10.7488 17.9673 10.5692 18.5707 10.2629 19.0862C9.95651 19.6017 9.535 20.0096 9.04403 20.2657C8.55305 20.5218 8.01134 20.6164 7.47757 20.5391C6.9438 20.4619 6.43834 20.2158 6.01594 19.8275C5.59355 19.4392 5.27033 18.9236 5.08131 18.3364L6.65848 17.6461C6.73947 17.8978 6.87798 18.1188 7.05899 18.2852C7.24001 18.4516 7.45663 18.5571 7.68538 18.5903C7.91414 18.6234 8.14631 18.5829 8.35674 18.4731C8.56716 18.3634 8.74782 18.1886 8.87914 17.9677C9.01046 17.7468 9.08743 17.4882 9.10171 17.2199C9.11599 16.9516 9.06703 16.6839 8.96015 16.4457C8.85327 16.2076 8.69253 16.0081 8.49536 15.8688C8.29818 15.7296 8.07209 15.6559 7.84158 15.6558ZM3.21026 9.7644H14.578C15.1159 9.76463 15.6434 9.93648 16.1035 10.2613C16.5636 10.5862 16.9387 11.0517 17.1881 11.6074C17.4375 12.163 17.5518 12.7877 17.5185 13.4137C17.4853 14.0397 17.3057 14.6431 16.9993 15.1586C16.693 15.6741 16.2715 16.082 15.7805 16.3381C15.2895 16.5942 14.7478 16.6888 14.214 16.6115C13.6803 16.5343 13.1748 16.2882 12.7524 15.8999C12.33 15.5116 12.0068 14.996 11.8178 14.4088L13.3949 13.7185C13.4759 13.9702 13.6144 14.1912 13.7954 14.3576C13.9765 14.524 14.1931 14.6295 14.4218 14.6627C14.6506 14.6958 14.8828 14.6553 15.0932 14.5456C15.3036 14.4358 15.4843 14.261 15.6156 14.0401C15.7469 13.8192 15.8239 13.5606 15.8382 13.2923C15.8524 13.024 15.8035 12.7563 15.6966 12.5181C15.5897 12.28 15.429 12.0805 15.2318 11.9412C15.0346 11.802 14.8085 11.7283 14.578 11.7282H3.21026C2.54028 11.7282 1.89774 11.4179 1.42399 10.8654C0.950239 10.313 0.68409 9.56375 0.68409 8.7825C0.68409 8.00126 0.950239 7.25201 1.42399 6.69958C1.89774 6.14716 2.54028 5.83681 3.21026 5.83681H10.3677C10.5983 5.83669 10.8244 5.76303 11.0215 5.62378C11.2187 5.48454 11.3794 5.28503 11.4863 5.04688C11.5932 4.80872 11.6422 4.541 11.6279 4.27272C11.6136 4.00444 11.5366 3.74583 11.4053 3.52492C11.274 3.304 11.0933 3.1292 10.8829 3.01946C10.6725 2.90971 10.4403 2.86921 10.2116 2.90234C9.9828 2.93547 9.76618 3.04096 9.58516 3.20739C9.40415 3.37382 9.26564 3.59484 9.18466 3.8465L7.60748 3.1572C7.85039 2.4039 8.31226 1.77385 8.91262 1.37683C9.51298 0.979823 10.2138 0.841017 10.8929 0.984604C11.572 1.12819 12.1864 1.54507 12.629 2.1626C13.0716 2.78012 13.3143 3.55916 13.3149 4.36396C13.3149 5.27541 13.0044 6.14954 12.4517 6.79403C11.899 7.43853 11.1494 7.8006 10.3677 7.8006H3.21026C2.98693 7.8006 2.77275 7.90405 2.61484 8.0882C2.45692 8.27234 2.3682 8.52209 2.3682 8.7825C2.3682 9.04292 2.45692 9.29267 2.61484 9.47681C2.77275 9.66095 2.98693 9.7644 3.21026 9.7644Z" fill="white"/>
</svg>
