<svg width="27" height="27" viewBox="0 0 27 27" fill="none" xmlns="http://www.w3.org/2000/svg">
<path d="M12.709 6.06203H14.291V11.9155H12.709V6.06203Z" fill="#E5F8FC"/>
<path d="M21.7062 20.9857C21.308 16.8039 17.7862 13.5327 13.5 13.5327C9.2138 13.5327 5.69204 16.8039 5.29385 20.9858H0V22.5678H27V20.9858H21.7062V20.9857Z" fill="#E5F8FC"/>
<path d="M3.35745 24.1498H23.6426V25.7318H3.35745V24.1498Z" fill="#E5F8FC"/>
<path d="M0.597107 17.7545L1.15556 16.2737L4.56141 17.5581L4.00295 19.0389L0.597107 17.7545Z" fill="#E5F8FC"/>
<path d="M7.57132 9.62662L9.03154 9.01595L10.4361 12.3745L8.97587 12.9852L7.57132 9.62662Z" fill="#E5F8FC"/>
<path d="M16.5832 12.3743L17.9877 9.01579L19.4479 9.62645L18.0434 12.985L16.5832 12.3743Z" fill="#E5F8FC"/>
<path d="M22.4549 17.5597L25.8608 16.2753L26.4192 17.756L23.0134 19.0405L22.4549 17.5597Z" fill="#E5F8FC"/>
<path d="M1.82721 11.2234L2.94571 10.1049L7.08414 14.2434L5.96564 15.3619L1.82721 11.2234Z" fill="#E5F8FC"/>
<path d="M19.9102 14.2454L24.0487 10.1069L25.1672 11.2254L21.0287 15.3639L19.9102 14.2454Z" fill="#E5F8FC"/>
<path d="M23.1435 3.73713V7.56201H24.7256V3.73713L25.8004 4.81196L26.9191 3.69331L24.4939 1.26816H23.3752L20.9334 3.70992L22.052 4.82857L23.1435 3.73713Z" fill="#E5F8FC"/>
</svg>
